#define crs_width 32
#define crs_height 32
static unsigned char crs_bits[] = {
   0x01, 0x00, 0x00, 0x00, 0x06, 0x00, 0x00, 0x00, 0x0c, 0x00, 0x00, 0x00,
   0x14, 0x00, 0x00, 0x00, 0x38, 0x00, 0x00, 0x00, 0x70, 0x00, 0x00, 0x00,
   0xe0, 0x00, 0x00, 0x00, 0xc0, 0x01, 0x00, 0x00, 0x80, 0x03, 0x00, 0x00,
   0x00, 0x07, 0x00, 0x00, 0x00, 0x1e, 0x00, 0x00, 0x00, 0x3c, 0x00, 0x00,
   0x00, 0x78, 0x00, 0x00, 0x00, 0xf0, 0x00, 0x00, 0x00, 0xe0, 0x01, 0x00,
   0x00, 0xc0, 0x02, 0x00, 0x00, 0x40, 0x0c, 0x00, 0x00, 0x80, 0x9e, 0x01,
   0x00, 0x00, 0x7f, 0x0e, 0x00, 0x00, 0x1e, 0x10, 0x00, 0x00, 0x0e, 0x20,
   0x00, 0x00, 0x04, 0x40, 0x00, 0x00, 0x02, 0x80, 0x00, 0x00, 0x02, 0x80,
   0x00, 0x00, 0x02, 0x00, 0x00, 0x00, 0x02, 0x00, 0x00, 0x00, 0x02, 0x00,
   0x00, 0x00, 0x04, 0x00, 0x00, 0x00, 0x0c, 0x00, 0x00, 0x00, 0x30, 0x00,
   0x00, 0x00, 0x40, 0x00, 0x00, 0x00, 0x80, 0x00 };
